<?xml version="1.0" encoding="UTF-8" standalone="no"?>
<!-- Created with Inkscape (http://www.inkscape.org/) -->

<svg
   width="1079.7856"
   height="1079.8776"
   viewBox="0 0 285.69328 285.71761"
   version="1.1"
   id="svg1"
   xmlns="http://www.w3.org/2000/svg"
   xmlns:svg="http://www.w3.org/2000/svg">
  <defs
     id="defs1" />
  <g
     id="layer1"
     transform="translate(-0.01843942,-0.02341308)">
    <path
       style="fill:none;stroke:currentColor;stroke-width:16.1;stroke-linecap:round;stroke-linejoin:round;stroke-miterlimit:3.2;stroke-dasharray:none;stroke-opacity:1"
       id="path1"
       d="M 146.9409,277.62917 A 134.80089,134.81551 0 0 1 13.355966,180.24346 134.80089,134.81551 0 0 1 74.548049,26.66125 134.80089,134.81551 0 0 1 238.49352,47.846918 134.80089,134.81551 0 0 1 258.64322,211.94043 L 142.875,142.875 Z" />
    <path
       style="fill:none;stroke:currentColor;stroke-width:16.1;stroke-linecap:round;stroke-linejoin:round;stroke-miterlimit:3.2;stroke-dasharray:none;stroke-opacity:1"
       id="path2"
       d="M 118.84461,78.525218 A 15.460911,13.399456 0 0 1 102.9276,65.619293 15.460911,13.399456 0 0 1 117.71978,51.744561 15.460911,13.399456 0 0 1 133.82076,64.477932 15.460911,13.399456 0 0 1 119.22882,78.511024 l -0.85055,-13.379165 z" />
    <path
       style="fill:none;stroke:currentColor;stroke-width:16.1;stroke-linecap:round;stroke-linejoin:round;stroke-miterlimit:3.2;stroke-dasharray:none;stroke-opacity:1"
       id="path2-5"
       d="M 66.097722,164.32216 A 15.460911,13.399456 0 0 1 50.180708,151.41624 15.460911,13.399456 0 0 1 64.972896,137.54151 15.460911,13.399456 0 0 1 81.073874,150.27488 15.460911,13.399456 0 0 1 66.481928,164.30797 L 65.631386,150.9288 Z" />
    <path
       style="fill:none;stroke:currentColor;stroke-width:16.1;stroke-linecap:round;stroke-linejoin:round;stroke-miterlimit:3.2;stroke-dasharray:none;stroke-opacity:1"
       id="path2-8"
       d="m 213.97236,121.42369 a 15.460911,13.399456 0 0 1 -15.91701,-12.90593 15.460911,13.399456 0 0 1 14.79219,-13.874731 15.460911,13.399456 0 0 1 16.10098,12.733371 15.460911,13.399456 0 0 1 -14.59195,14.03309 l -0.85054,-13.37916 z" />
  </g>
</svg>
